# xmcd CD database file
#
# Track frame offsets:
#	150
#	22702
#	33564
#	60207
#	86579
#	112289
#	146879
#	162604
#	175279
#	196894
#	215257
#	229572
#	248149
#	261187
#	271099
#
# Disc length: 3850 seconds
#
# Revision: 0
# Processed by: cddbd v1.5.1PL0 Copyright (c) Steve Scherf et al.
# Submitted via: CDex 1.50Beta7
#
DISCID=cd0f080f
DTITLE=Joao Gilberto and Stan Getz - Getz and Gilberto #2
DYEAR=1964
DGENRE=Jazz
TTITLE0=Grandfather's Waltz
TTITLE1=Tonight I Shall Sleep (With a Smile on My Face)
TTITLE2=Stan's Blues
TTITLE3=Here's That Rainy Day
TTITLE4=Samba de Monha Terra
TTITLE5=Rosa Moreno
TTITLE6=Um Abraço No Bonfá
TTITLE7=Bim Bom
TTITLE8=Meditation (Meditação)
TTITLE9=O Pato (The Duck)
TTITLE10=It Might as Well Be Spring
TTITLE11=Only Trust Your Heart
TTITLE12=Corcovado (Quiet Nights of Quite Stars)
TTITLE13=Garôta de Ipanema (The Girl from Ipanema)
TTITLE14=Eu E Voce
EXTD=YEAR: 1964
EXTT0=
EXTT1=
EXTT2=
EXTT3=
EXTT4=
EXTT5=
EXTT6=
EXTT7=
EXTT8=
EXTT9=
EXTT10=
EXTT11=
EXTT12=
EXTT13=
EXTT14=
PLAYORDER=
